<svg width="103" height="38" viewBox="0 0 103 38" fill="none" xmlns="http://www.w3.org/2000/svg">
<g id="Logo_Paxer" clip-path="url(#clip0_1_1844)">
<path id="Vector" d="M20.8443 4.29053C12.5356 4.29053 5.80078 10.878 5.80078 19.0048C5.80078 27.1316 12.5356 33.7191 20.8443 33.7191C29.1529 33.7191 35.8878 27.1316 35.8878 19.0048C35.8878 10.878 29.1516 4.29053 20.8443 4.29053ZM24.0345 28.3688C20.5092 28.3688 17.6526 25.5734 17.6526 22.1266C14.1273 22.1266 11.2708 19.3312 11.2708 15.8844C11.2708 12.4362 14.1287 9.64215 17.6526 9.64215C21.178 9.64215 24.0345 12.4362 24.0345 15.8844C27.5599 15.8844 30.4164 18.6797 30.4164 22.1266C30.4164 25.5734 27.5599 28.3688 24.0345 28.3688Z" fill="#33AF7F"/>
<path id="Vector_2" d="M24.0342 15.4653C20.5089 15.4653 17.6523 18.2607 17.6523 21.7075C21.1777 21.7075 24.0342 18.9122 24.0342 15.4653Z" fill="#33AF7F"/>
<g id="Group">
<path id="Vector_3" d="M47.4085 8.69385C43.7472 8.69385 40.7259 11.5752 40.6174 15.1416L40.6133 29.2769H41.6241V18.8222C42.8601 20.786 45.0354 21.9883 47.4099 21.9883C51.1577 21.9883 54.2065 19.0062 54.2065 15.3404C54.2038 11.6759 51.1564 8.69385 47.4085 8.69385ZM47.4085 21.001C44.2183 21.001 41.6227 18.4622 41.6227 15.3417C41.6227 12.2213 44.2183 9.6825 47.4085 9.6825C50.5988 9.6825 53.1944 12.2213 53.1944 15.3417C53.1944 18.4622 50.5988 21.001 47.4085 21.001Z" fill="#33AF7F"/>
<path id="Vector_4" d="M59.6714 22.7255C59.6714 19.0597 56.6226 16.0776 52.8748 16.0776C49.1269 16.0776 46.0781 19.0597 46.0781 22.7255C46.0781 25.9736 48.4526 28.7286 51.7253 29.2753L51.7363 29.278L54.0119 29.2767C55.9057 28.9637 57.599 27.8501 58.6235 26.2664V29.278H59.6329V23.4227C59.659 23.189 59.6714 22.9552 59.6714 22.7255ZM58.6249 23.3501C58.3008 26.2207 55.8288 28.3834 52.8748 28.3834C49.6845 28.3834 47.0889 25.8446 47.0889 22.7242C47.0889 19.6037 49.6845 17.0649 52.8748 17.0649C56.0485 17.0649 58.6345 19.5782 58.6606 22.6772H58.6235L58.6249 23.3501Z" fill="#33AF7F"/>
<path id="Vector_5" d="M96.6163 17.7114C95.0823 16.6274 93.5703 16.219 92.1214 16.4944C89.9255 16.9135 88.7293 18.7565 88.6785 18.8344L88.6016 18.9539V29.3146H89.6096V19.2494C89.8994 18.8612 90.8497 17.7383 92.3205 17.4602C93.4824 17.2412 94.728 17.5945 96.0244 18.5093L96.1274 18.5818L96.718 17.7826L96.6163 17.7114Z" fill="#33AF7F"/>
<path id="Vector_6" d="M80.4787 16.2983C76.8435 16.2983 73.8867 19.1918 73.8867 22.7461C73.8867 26.3017 76.8435 29.1952 80.4787 29.1952C82.9301 29.1952 85.1659 27.872 86.314 25.7443L86.4115 25.5629H85.2854L85.2483 25.622C84.2156 27.2555 82.433 28.2307 80.4787 28.2307C77.4903 28.2307 75.0403 25.931 74.881 23.047L86.9403 23.0483L87.0625 23.0255L87.0666 22.9073C87.068 22.8549 87.0707 22.8025 87.0707 22.7488C87.0721 19.1918 84.1139 16.2983 80.4787 16.2983ZM80.4787 17.2642C83.3339 17.2642 85.7029 19.3261 86.0435 22.0812H74.9153C75.2518 19.3704 77.6181 17.2642 80.4787 17.2642Z" fill="#33AF7F"/>
<path id="Vector_7" d="M68.0417 21.9143L73.0118 16.4189H71.6632L67.3797 21.1553L63.2556 16.4189H61.929L66.7041 21.9022L60.0352 29.2755H61.3838L67.366 22.6625L73.1258 29.2755H74.4524L68.0417 21.9143Z" fill="#33AF7F"/>
</g>
</g>
<defs>
<clipPath id="clip0_1_1844">
<rect width="103" height="38" fill="white"/>
</clipPath>
</defs>
</svg>
