<?xml version="1.0" standalone="no"?>
<!DOCTYPE svg PUBLIC "-//W3C//DTD SVG 20010904//EN"
 "http://www.w3.org/TR/2001/REC-SVG-20010904/DTD/svg10.dtd">
<svg version="1.0" xmlns="http://www.w3.org/2000/svg"
 width="740.000000pt" height="740.000000pt" viewBox="0 0 740.000000 740.000000"
 preserveAspectRatio="xMidYMid meet">
<metadata>
Created by potrace 1.14, written by Peter Selinger 2001-2017
</metadata>
<g transform="translate(0.000000,740.000000) scale(0.100000,-0.100000)"
fill="#000000" stroke="none">
<path d="M3458 7314 c-2 -2 -40 -6 -84 -9 -43 -2 -95 -7 -114 -10 -19 -2 -53
-7 -75 -10 -23 -3 -52 -7 -65 -10 -13 -3 -42 -7 -65 -11 -22 -3 -60 -10 -85
-15 -25 -5 -58 -12 -75 -15 -147 -30 -547 -153 -570 -175 -5 -5 -15 -9 -23 -9
-8 0 -44 -14 -80 -31 -37 -17 -85 -38 -107 -47 -22 -8 -47 -21 -56 -29 -8 -7
-21 -13 -27 -13 -6 0 -28 -10 -49 -22 -45 -26 -112 -62 -187 -103 -31 -16 -56
-33 -56 -37 0 -4 -7 -8 -15 -8 -8 0 -15 -5 -15 -12 0 -6 -3 -9 -6 -6 -6 6
-197 -123 -289 -195 -147 -114 -201 -163 -360 -322 -138 -138 -168 -171 -253
-275 -29 -36 -59 -73 -67 -83 -8 -9 -15 -21 -15 -26 0 -5 -4 -11 -8 -13 -12
-4 -92 -115 -92 -127 0 -5 -3 -11 -7 -13 -9 -3 -72 -98 -105 -156 -11 -20 -29
-50 -39 -67 -34 -56 -155 -300 -182 -365 -28 -68 -49 -122 -52 -130 -1 -3 -5
-12 -8 -20 -25 -58 -107 -319 -122 -385 -38 -172 -65 -320 -61 -331 3 -8 2
-14 -2 -14 -5 0 -8 -10 -8 -22 -1 -13 -4 -43 -7 -68 -29 -191 -30 -644 -2
-850 2 -19 6 -51 9 -70 8 -66 29 -183 41 -240 4 -14 8 -36 11 -50 3 -14 9 -38
14 -55 5 -16 11 -41 14 -55 6 -32 54 -198 65 -225 9 -22 31 -84 35 -100 5 -17
17 -48 37 -92 10 -24 19 -47 19 -53 0 -6 4 -18 10 -28 21 -39 112 -237 110
-241 -1 -2 2 -7 7 -10 4 -3 24 -36 43 -73 19 -37 38 -68 43 -68 4 0 7 -6 7
-14 0 -16 178 -289 191 -294 5 -2 9 -8 9 -13 0 -6 11 -22 25 -37 14 -15 25
-32 25 -39 0 -6 4 -13 8 -15 5 -2 44 -46 88 -98 86 -104 313 -335 410 -419
115 -98 311 -246 393 -296 9 -6 42 -27 74 -48 31 -20 60 -37 64 -37 3 0 14 -7
23 -15 15 -14 372 -199 378 -196 1 1 16 -6 32 -14 16 -8 31 -15 32 -14 4 1 57
-20 80 -32 10 -5 22 -9 27 -9 5 0 26 -8 47 -17 22 -9 44 -18 49 -19 6 -1 29
-9 53 -18 23 -8 46 -16 50 -17 4 -1 17 -5 30 -10 12 -5 26 -8 30 -7 4 1 16 -2
27 -6 47 -18 72 -26 95 -30 14 -3 52 -12 86 -20 34 -8 72 -17 85 -20 71 -14
188 -35 219 -40 19 -3 46 -7 60 -10 28 -6 93 -13 215 -23 171 -14 619 -7 725
11 14 3 48 7 75 10 67 8 115 15 145 21 36 8 62 13 106 19 52 9 265 62 344 87
36 11 73 22 82 24 9 2 26 9 37 15 12 6 21 8 21 4 0 -3 6 -1 13 5 8 6 22 12 33
14 10 2 36 11 56 21 21 9 44 16 53 16 8 0 15 4 15 8 0 5 6 9 13 9 12 0 137 54
237 103 143 70 299 159 398 227 35 24 68 43 73 43 5 0 12 7 15 15 4 8 10 15
16 15 8 0 64 38 94 65 7 6 24 19 40 30 129 94 398 345 529 496 72 83 85 100
151 187 36 48 72 95 79 105 8 9 15 22 15 27 0 6 3 10 8 10 4 0 23 27 42 60 19
33 38 60 43 60 4 0 7 4 7 9 0 5 19 40 42 77 61 101 162 299 209 411 22 54 44
107 49 118 9 19 71 199 90 260 15 49 68 257 74 290 2 17 7 41 11 55 3 14 8 41
11 60 3 19 8 49 11 65 3 17 6 44 8 60 2 17 6 48 9 70 27 192 28 687 2 835 -3
14 -7 48 -10 75 -5 45 -11 83 -21 140 -4 24 -44 211 -51 240 -3 11 -7 27 -9
35 -2 8 -4 15 -5 15 -1 0 -3 10 -6 22 -4 26 -61 209 -73 238 -5 11 -23 58 -41
105 -88 235 -247 536 -399 753 -34 49 -66 93 -71 100 -6 7 -24 30 -41 52 -110
146 -318 371 -435 472 -12 10 -45 38 -74 63 -29 25 -60 52 -70 60 -9 8 -32 26
-50 40 -18 14 -38 30 -44 35 -6 6 -21 17 -33 25 -115 80 -148 104 -151 112 -2
4 -8 8 -13 8 -5 0 -40 19 -77 43 -101 64 -105 66 -132 79 -14 7 -27 16 -30 19
-6 9 -375 190 -393 193 -6 1 -30 10 -52 20 -64 28 -295 106 -295 99 0 -3 -6
-1 -12 4 -22 17 -314 88 -443 108 -16 3 -46 7 -65 11 -51 8 -78 12 -145 19
-33 4 -78 9 -100 12 -49 6 -572 13 -577 7z m-403 -1318 c44 -3 91 -8 105 -11
14 -3 41 -8 60 -11 86 -15 211 -52 300 -89 124 -51 318 -162 328 -187 2 -4 10
-8 17 -8 7 0 15 -3 17 -7 2 -5 32 -33 68 -63 105 -90 215 -214 287 -326 7 -10
24 -36 38 -56 13 -21 22 -38 18 -38 -3 0 0 -7 7 -15 37 -45 122 -264 145 -375
22 -104 27 -132 30 -182 l4 -58 -47 -1 c-113 -2 -219 -17 -340 -49 -245 -64
-426 -156 -618 -311 -82 -67 -244 -237 -244 -256 0 -7 -4 -13 -9 -13 -5 0 -20
-17 -33 -37 -12 -20 -31 -49 -40 -63 -52 -77 -162 -321 -174 -385 -1 -5 -7
-28 -12 -50 -6 -22 -14 -55 -17 -74 -3 -19 -7 -37 -9 -40 -4 -6 -16 -134 -20
-208 -1 -23 3 -44 9 -46 13 -4 98 0 153 7 23 3 60 8 81 11 22 3 62 10 88 16
26 6 55 12 64 14 69 14 236 78 334 128 317 160 581 443 717 767 39 93 74 197
83 250 3 18 8 36 10 40 2 3 7 33 11 65 4 33 8 69 10 80 1 11 3 27 3 36 1 20
25 21 156 8 120 -12 147 -16 192 -28 21 -6 47 -12 58 -14 88 -16 287 -98 401
-165 182 -106 349 -257 482 -434 23 -32 42 -59 42 -62 0 -3 15 -29 34 -58 26
-42 84 -153 91 -178 3 -8 16 -42 25 -65 26 -65 63 -203 74 -275 16 -108 18
-145 18 -245 0 -104 -3 -149 -17 -239 -4 -21 -8 -50 -10 -65 -2 -14 -4 -26 -5
-26 -1 0 -3 -8 -5 -17 -11 -58 -71 -226 -105 -298 -39 -79 -106 -198 -119
-210 -3 -3 -17 -21 -31 -40 -58 -83 -138 -172 -222 -245 -67 -58 -78 -67 -133
-105 -28 -18 -52 -36 -55 -39 -13 -16 -188 -105 -280 -144 -63 -27 -205 -67
-285 -81 -16 -3 -41 -8 -54 -11 -14 -2 -58 -7 -100 -10 -41 -4 -78 -8 -83 -11
-4 -3 -8 0 -8 6 0 7 -6 8 -17 2 -10 -4 -38 -7 -63 -6 -108 6 -197 14 -220 20
-14 3 -34 7 -45 8 -80 9 -276 72 -385 123 -72 34 -199 105 -230 130 -206 160
-330 286 -412 421 -12 20 -24 39 -27 42 -36 32 -145 287 -176 407 -30 120 -35
154 -50 330 -1 21 -3 43 -4 48 -1 6 -34 11 -74 12 -74 1 -153 9 -197 19 -14 3
-36 7 -50 10 -191 38 -387 121 -564 239 -351 234 -591 604 -661 1020 -22 135
-23 382 -1 475 3 14 7 39 10 55 6 46 35 154 57 215 27 74 92 214 101 218 5 2
8 9 8 15 0 12 96 162 120 188 8 8 25 28 36 43 38 49 129 141 185 187 29 24 59
49 67 56 58 54 267 170 402 223 114 45 292 86 420 96 41 3 76 6 77 7 3 3 124
-1 208 -7z"/>
</g>
</svg>
