<?xml version="1.0" standalone="no"?>
<!DOCTYPE svg PUBLIC "-//W3C//DTD SVG 20010904//EN"
 "http://www.w3.org/TR/2001/REC-SVG-20010904/DTD/svg10.dtd">
<svg version="1.0" xmlns="http://www.w3.org/2000/svg"
 width="1553.000000pt" height="1553.000000pt" viewBox="0 0 1553.000000 1553.000000"
 preserveAspectRatio="xMidYMid meet">
<metadata>
Created by potrace 1.14, written by Peter Selinger 2001-2017
</metadata>
<g transform="translate(0.000000,1553.000000) scale(0.100000,-0.100000)"
fill="#000000" stroke="none">
<path d="M7360 15360 c-772 -45 -1463 -178 -2156 -414 -1790 -610 -3303 -1858
-4230 -3487 -809 -1422 -1127 -3078 -903 -4709 259 -1887 1243 -3615 2756
-4837 1116 -902 2480 -1484 3905 -1667 324 -42 538 -57 898 -63 332 -5 604 3
865 28 1636 153 3153 794 4389 1852 880 754 1584 1708 2038 2762 596 1383 758
2930 462 4415 -390 1957 -1572 3701 -3269 4825 -1113 738 -2364 1167 -3725
1280 -219 18 -824 27 -1030 15z m-890 -2771 c1267 -137 2329 -961 2756 -2138
82 -226 154 -547 170 -759 l7 -92 -74 0 c-41 0 -128 -5 -194 -10 -667 -57
-1298 -309 -1820 -727 -143 -114 -378 -348 -489 -488 -394 -495 -626 -1057
-691 -1669 -8 -80 -15 -187 -15 -237 l0 -92 148 6 c709 31 1392 288 1947 733
142 114 377 349 488 489 294 369 501 784 612 1225 41 165 72 348 81 476 5 66
10 92 18 84 5 -5 54 -10 112 -10 199 0 476 -39 718 -100 1218 -309 2160 -1289
2399 -2495 78 -393 80 -845 6 -1220 -101 -508 -303 -950 -625 -1365 -111 -144
-405 -438 -545 -548 -493 -381 -1023 -602 -1654 -688 -182 -25 -636 -25 -820
-1 -382 51 -718 150 -1043 307 -356 173 -626 364 -902 640 -412 411 -693 898
-840 1455 -58 222 -100 513 -100 703 l0 89 -187 11 c-656 42 -1241 246 -1753
612 -1295 926 -1724 2617 -1020 4021 525 1048 1578 1731 2780 1803 100 6 423
-3 530 -15z"/>
</g>
</svg>
